<svg width="30" height="30" viewBox="0 0 30 30" fill="none" xmlns="http://www.w3.org/2000/svg">
<path fill-rule="evenodd" clip-rule="evenodd" d="M18.8002 5.06413C20.0627 5.56663 20.449 7.31663 20.9652 7.87913C21.4815 8.44163 22.2202 8.63288 22.629 8.63288C24.8015 8.63288 26.5627 10.3941 26.5627 12.5654V19.8091C26.5627 22.7216 24.2002 25.0841 21.2877 25.0841H8.71274C5.79899 25.0841 3.43774 22.7216 3.43774 19.8091V12.5654C3.43774 10.3941 5.19899 8.63288 7.37149 8.63288C7.77899 8.63288 8.51774 8.44163 9.03524 7.87913C9.55149 7.31663 9.93649 5.56663 11.199 5.06413C12.4627 4.56163 17.5377 4.56163 18.8002 5.06413Z" stroke="#100F0F" stroke-width="1.5" stroke-linecap="round" stroke-linejoin="round"/>
<path d="M21.8694 11.875H21.8806" stroke="#100F0F" stroke-width="2" stroke-linecap="round" stroke-linejoin="round"/>
<path fill-rule="evenodd" clip-rule="evenodd" d="M18.9736 16.41C18.9736 14.215 17.1949 12.4362 14.9999 12.4362C12.8049 12.4362 11.0261 14.215 11.0261 16.41C11.0261 18.605 12.8049 20.3837 14.9999 20.3837C17.1949 20.3837 18.9736 18.605 18.9736 16.41Z" stroke="#100F0F" stroke-width="1.5" stroke-linecap="round" stroke-linejoin="round"/>
</svg>
