<svg width="188" height="449" viewBox="0 0 188 449" fill="none" xmlns="http://www.w3.org/2000/svg">
<path opacity="0.6" d="M187 -58C137 -47.1667 33 -5.5 61 149C85.5229 284.314 25 395.5 -85.5 432C-173.9 461.2 -246.667 444.167 -272 432" stroke="white"/>
<path opacity="0.6" d="M175 -58C125 -47.1667 21 -5.5 49 149C73.5229 284.314 13 395.5 -97.5 432C-185.9 461.2 -258.667 444.167 -284 432" stroke="white"/>
<path opacity="0.6" d="M163 -58C113 -47.1667 9 -5.5 37 149C61.5229 284.314 1 395.5 -109.5 432C-197.9 461.2 -270.667 444.167 -296 432" stroke="white"/>
</svg>
