<svg width="362" height="261" viewBox="0 0 362 261" fill="none" xmlns="http://www.w3.org/2000/svg">
<path opacity="0.6" d="M0.105835 506.623C50.1058 495.789 154.106 454.123 126.106 299.623C101.583 164.309 162.106 53.1228 272.606 16.6228C361.006 -12.5772 433.773 4.45616 459.106 16.6228" stroke="white"/>
<path opacity="0.6" d="M12.1058 506.623C62.1058 495.789 166.106 454.123 138.106 299.623C113.583 164.309 174.106 53.1228 284.606 16.6228C373.006 -12.5772 445.773 4.45616 471.106 16.6228" stroke="white"/>
<path opacity="0.6" d="M24.1058 506.623C74.1058 495.789 178.106 454.123 150.106 299.623C125.583 164.309 186.106 53.1228 296.606 16.6228C385.006 -12.5772 457.773 4.45616 483.106 16.6228" stroke="white"/>
</svg>
